<svg width="19" height="23" viewBox="0 0 19 23" fill="none" xmlns="http://www.w3.org/2000/svg">
<path d="M2.12663 6.74369L16.3661 6.75938C16.874 6.75996 17.2318 7.46064 17.283 8.32824L17.9961 20.4312C18.0472 21.2988 17.5871 22 17.0792 22H1.55138C1.04342 22 0.592997 21.2993 0.634495 20.4311L1.20974 8.4012C1.25126 7.53308 1.61867 6.74343 2.12663 6.74399V6.74369Z" stroke="#F5F5F7" stroke-width="1.03212" stroke-linecap="round" stroke-linejoin="round"/>
<path d="M13.7978 5.8427C13.7978 5.01671 13.5899 4.20532 13.1952 3.49037C12.8004 2.77542 12.2328 2.18218 11.5494 1.77048C10.8661 1.35878 10.0912 1.14317 9.30297 1.1454C8.51474 1.14763 7.741 1.36763 7.05979 1.78321C6.37858 2.19879 5.814 2.79525 5.42297 3.51244C5.03195 4.22963 4.8283 5.04219 4.83259 5.86816" stroke="#F5F5F7" stroke-width="1.03212" stroke-linecap="round" stroke-linejoin="round"/>
</svg>
