<svg xmlns="http://www.w3.org/2000/svg" width="33" height="44"><path fill="none" d="M0 0h33v44H0z"/><path d="M.62 25.41v-.96h10.45v.96H.62zm10.01-4.37l-.54.96c-1.72-.45-3.71-1.72-4.27-3.29-.55 1.58-2.5 2.84-4.25 3.29l-.55-.96c2.02-.39 4.18-1.93 4.18-3.93v-.81h1.26v.81c0 1.99 2.16 3.53 4.17 3.93zm11.35 4.44H11.53v-.95h4.63v-2.21h-3.28V16.3h7.82v.96h-6.64v1.57h6.38v.95h-6.38v1.6h6.71v.94h-3.42v2.21h4.63v.95zm3.51-1.09c-1.73 0-2.88-1.65-2.88-4.07 0-2.43 1.15-4.07 2.88-4.07 1.75 0 2.88 1.64 2.88 4.07-.01 2.4-1.13 4.07-2.88 4.07zm0-1.04c.98 0 1.76-1.11 1.76-3.03 0-1.93-.78-3.04-1.76-3.04-.96 0-1.73 1.11-1.73 3.04 0 1.92.76 3.03 1.73 3.03zm5.24 3.64v-6.23h-1.94v-1.02h1.94v-4.33h1.2v11.58h-1.2z" fill="#fff"/></svg>