<?xml version="1.0" encoding="utf-8"?>
<!-- Generator: Adobe Illustrator 19.2.1, SVG Export Plug-In . SVG Version: 6.00 Build 0)  -->
<svg version="1.1" xmlns="http://www.w3.org/2000/svg" xmlns:xlink="http://www.w3.org/1999/xlink" x="0px" y="0px" width="45px"
	 height="44px" viewBox="0 0 45 44" enable-background="new 0 0 45 44" xml:space="preserve">
<g id="FPO_-_Delete_Before_Exporting">
</g>
<g id="Localized_Text">
	<g>
		<g>
			<rect fill="none" width="45" height="44"/>
		</g>
		<g>
			<path fill="#FFFFFF" d="M10.58,25.2H0.39v-0.84H4.1v-3.79h1.05v3.79h5.43V25.2z M7.67,23.01c0.15-0.78,0.27-1.62,0.37-2.53
				c0.09-0.9,0.14-1.78,0.14-2.63H1.71v-0.84h7.58c-0.03,1.18-0.1,2.26-0.21,3.23c-0.11,0.97-0.24,1.9-0.39,2.77H7.67z"/>
			<path fill="#FFFFFF" d="M16.5,16.79c-0.01,0.72-0.1,1.37-0.28,1.94c-0.18,0.58-0.44,1.09-0.77,1.54
				c-0.34,0.46-0.74,0.85-1.22,1.2c-0.48,0.34-1.03,0.65-1.64,0.91l-0.61-0.71c0.59-0.26,1.09-0.53,1.52-0.8
				c0.42-0.27,0.77-0.58,1.04-0.9c0.27-0.33,0.49-0.68,0.64-1.06c0.15-0.39,0.25-0.82,0.3-1.31h-2.97v-0.81H16.5z M21.01,27.04
				h-1.04v-3.07h-6.28v-0.83h7.32V27.04z M21.01,22.48h-1.02v-2.9h-1.48v2.9h-1.02v-6.23h1.02v2.43h1.48V16.2h1.02V22.48z"/>
			<path fill="#FFFFFF" d="M29.73,24.31c-0.24-0.13-0.49-0.29-0.76-0.46c-0.26-0.18-0.52-0.38-0.78-0.61
				c-0.25-0.23-0.5-0.48-0.73-0.77s-0.43-0.6-0.58-0.94c-0.29,0.7-0.7,1.29-1.22,1.76c-0.52,0.47-1.09,0.9-1.7,1.27l-0.65-0.7
				c0.4-0.22,0.78-0.48,1.15-0.77c0.37-0.29,0.69-0.61,0.97-0.96c0.28-0.35,0.5-0.73,0.66-1.14s0.25-0.85,0.25-1.33v-1.83h-2.42
				v-0.83h5.88v0.83h-2.4v1.88c0,0.46,0.08,0.89,0.24,1.27c0.16,0.39,0.37,0.75,0.63,1.07c0.26,0.33,0.56,0.61,0.91,0.85
				c0.35,0.25,0.7,0.45,1.06,0.62L29.73,24.31z M32.31,27h-1.04V16.2h1.04V27z"/>
			<path fill="#FFFFFF" d="M34.93,21.09c0.66,0,1.31,0,1.96-0.01c0.65-0.01,1.28-0.02,1.9-0.05c0.62-0.02,1.2-0.05,1.76-0.08
				c0.55-0.03,1.06-0.08,1.52-0.13v0.8c-0.48,0.07-1.01,0.12-1.59,0.16c-0.58,0.04-1.19,0.07-1.84,0.09v1.77H37.6V21.9
				c-0.45,0.01-0.9,0.02-1.34,0.02c-0.45,0-0.89,0-1.33,0V21.09z M38.47,16.38c0.4,0,0.77,0.04,1.12,0.14
				c0.34,0.09,0.64,0.22,0.88,0.38s0.44,0.37,0.58,0.61c0.14,0.24,0.21,0.51,0.21,0.81c0,0.3-0.07,0.57-0.2,0.81
				c-0.13,0.24-0.33,0.44-0.58,0.61s-0.54,0.29-0.88,0.38c-0.34,0.09-0.72,0.13-1.12,0.13c-0.4,0-0.77-0.04-1.11-0.13
				c-0.34-0.09-0.64-0.22-0.89-0.38s-0.45-0.37-0.59-0.61c-0.15-0.24-0.22-0.51-0.22-0.81c0-0.3,0.07-0.57,0.22-0.81
				c0.14-0.24,0.34-0.44,0.59-0.61s0.54-0.29,0.89-0.38C37.7,16.42,38.07,16.38,38.47,16.38z M44.19,26.82H36.6v-2.64h1.04v1.8h6.55
				V26.82z M38.47,17.13c-0.61,0-1.06,0.11-1.36,0.33c-0.3,0.22-0.44,0.5-0.44,0.85c0,0.32,0.15,0.59,0.45,0.81
				c0.3,0.22,0.75,0.33,1.35,0.33s1.05-0.11,1.35-0.32c0.3-0.21,0.45-0.49,0.45-0.82c0-0.36-0.15-0.65-0.45-0.86
				C39.52,17.24,39.07,17.13,38.47,17.13z M43.92,24.52H42.9v-1.06h-2.61V22.6h2.61v-6.4h1.02V24.52z"/>
		</g>
	</g>
</g>
<g id="Guides__x26__Notes_-_Delete_Before_Exporting" display="none">
</g>
</svg>
