<svg class="open_tv_arrow" xmlns="http://www.w3.org/2000/svg" viewBox="0 0 72 72" height="13" width="13" aria-hidden="true">
  <path fill="#fff" d="M61.559 47.094V6.638c0-2.456-1.551-4.093-4.05-4.093l-40.456.086c-2.412 0-3.963 1.767-3.963 3.792s1.766 3.748 3.791 3.748h12.796l20.508-.775-7.799 6.893-38.473 38.56c-.776.775-1.207 1.723-1.207 2.628 0 2.025 1.81 3.964 3.921 3.964.99 0 1.896-.388 2.671-1.164l38.517-38.56 6.936-7.798-.818 19.603v13.744c0 1.982 1.723 3.791 3.834 3.791 2.025 0 3.792-1.68 3.792-3.963z">
  </path>
</svg>